<?xml version="1.0" standalone="no"?><svg xmlns="http://www.w3.org/2000/svg" viewBox="0 0 1440 320"><path fill="#7fb5ff" fill-opacity="1" d="M0,160L26.7,186.7C53.3,213,107,267,160,256C213.3,245,267,171,320,165.3C373.3,160,427,224,480,234.7C533.3,245,587,203,640,170.7C693.3,139,747,117,800,128C853.3,139,907,181,960,197.3C1013.3,213,1067,203,1120,197.3C1173.3,192,1227,192,1280,197.3C1333.3,203,1387,213,1413,218.7L1440,224L1440,320L1413.3,320C1386.7,320,1333,320,1280,320C1226.7,320,1173,320,1120,320C1066.7,320,1013,320,960,320C906.7,320,853,320,800,320C746.7,320,693,320,640,320C586.7,320,533,320,480,320C426.7,320,373,320,320,320C266.7,320,213,320,160,320C106.7,320,53,320,27,320L0,320Z"></path></svg>